<!DOCTYPE svg PUBLIC "-//W3C//DTD SVG 1.1//EN" "http://www.w3.org/Graphics/SVG/1.1/DTD/svg11.dtd">

<!-- Uploaded to: SVG Repo, www.svgrepo.com, Transformed by: SVG Repo Mixer Tools -->
<svg fill="#ffffff" height="800px" width="800px" version="1.1" id="Capa_1" xmlns="http://www.w3.org/2000/svg" xmlns:xlink="http://www.w3.org/1999/xlink" viewBox="0 0 420.002 420.002" xml:space="preserve" stroke="#ffffff">

<g id="SVGRepo_bgCarrier" stroke-width="0"/>

<g id="SVGRepo_tracerCarrier" stroke-linecap="round" stroke-linejoin="round"/>

<g id="SVGRepo_iconCarrier"> <g> <g id="Layer_1_17_"> <g> <path d="M60.789,84.178c2.165,1.443,4.84,2.112,7.57,1.734c1.316-0.183,32.395-4.719,46.318-26.417 c14.093-21.964,4.08-50.978,3.645-52.203c-1.732-4.898-6.672-7.901-11.82-7.188c-1.314,0.182-32.394,4.718-46.314,26.415 c-14.096,21.968-4.079,50.98-3.648,52.205C57.356,81.021,58.875,82.902,60.789,84.178z"/> <path d="M363.592,153.562c0,0-90.753-30.171-120.081-37.351c-3.947,3.318-8.651,6.118-14.108,8.366 c-0.053,0.047-0.104,0.094-0.154,0.14c-9.61,8.514-21.454,13.622-34.256,14.772c-16.807,1.512-32.628-4.134-44.476-14.397 l-47.353,9.52l-31.968-33.281c-5.876-6.128-15.491-7.274-22.708-2.301c-8.011,5.524-10.029,16.496-4.504,24.507l34.195,49.6 c3.656,5.27,9.891,8.612,16.766,8.249l3.415-0.18l54.895-2.889l9.714,96.442l-10.211,60.13l-49.931,41.825 c-9.541,8.045-11.663,22.248-4.416,32.721c7.696,11.13,22.961,13.911,34.089,6.213l63.223-43.734 c4.701-3.261,8.325-8.194,9.839-14.178l0.619-2.451l14.974-59.23l26.682,25.804l44.514,84.921 c5.936,11.251,19.685,16.248,31.522,11.061c12.39-5.428,18.03-19.871,12.601-32.26l-40.66-92.815 c-0.832-1.872-1.984-3.746-3.393-5.376l-29.806-34.482l-7.864-77.642l97.888,20.743c10.984,2.292,22.192-4.116,25.533-15.057 C381.707,169.362,375.181,157.1,363.592,153.562z"/> <path d="M192.83,132.591c10.828-0.974,20.842-5.292,28.968-12.49c0.308-0.272,0.544-0.604,0.71-0.966 c10.472-3.869,17.752-9.784,21.68-17.673c7.014-14.092,0.342-28.837,0.056-29.459c-0.819-1.766-2.601-2.886-4.54-2.863 c-1.952,0.024-3.697,1.187-4.473,2.971c-3.192,7.354-17.58,15.109-27.99,19.256c-0.047-0.379-0.096-0.756-0.132-1.137 c-1.311-14.562,6.681-28.565,19.878-34.846c0.797-0.38,1.379-1.103,1.58-1.964c0.199-0.86-0.002-1.766-0.545-2.459 c-10.639-13.483-27.182-20.617-44.248-19.082c-27.766,2.497-48.324,27.115-45.826,54.882 C140.443,114.528,165.064,135.087,192.83,132.591z M237.4,85.142c0.296,3.618-0.047,7.881-2.057,11.918 c-3.084,6.196-9.504,10.812-19.098,13.775c-2.688-2.917-4.854-6.256-6.414-9.876C215.855,98.628,228.835,93.027,237.4,85.142z"/> </g> </g> </g> </g>

</svg>